<?xml version="1.0" encoding="iso-8859-1"?>
<!-- Generator: Adobe Illustrator 19.0.0, SVG Export Plug-In . SVG Version: 6.00 Build 0)  -->
<svg version="1.1" id="Capa_1" xmlns="http://www.w3.org/2000/svg" xmlns:xlink="http://www.w3.org/1999/xlink" x="0px" y="0px"
	 viewBox="0 0 512 512" style="enable-background:new 0 0 512 512;" xml:space="preserve">
<path style="fill:#D5E3EF;" d="M395.636,104.727v360.727c0,12.8-10.473,23.273-23.273,23.273H46.545
	c-12.8,0-23.273-10.473-23.273-23.273V23.273C23.273,10.473,33.745,0,46.545,0h244.364v81.455c0,12.8,10.473,23.273,23.273,23.273
	H395.636z"/>
<path style="fill:#99B4CD;" d="M395.636,104.727h-81.455c-12.8,0-23.273-10.473-23.273-23.273V0L395.636,104.727z"/>
<g>
	<path style="fill:#C9D5E3;" d="M395.636,337.455l-104.727,81.455h52.364c3.491,0,6.982-1.164,10.473-2.327l41.891-20.945V337.455z"
		/>
	<polygon style="fill:#C9D5E3;" points="395.636,104.727 325.818,104.727 395.636,151.273 	"/>
</g>
<path style="fill:#3689C9;" d="M480.582,236.218l-6.982-6.982c-4.655-4.655-12.8-8.145-19.782-8.145
	c-6.982,0-15.127,3.491-19.782,8.145l-15.127,15.127L302.545,360.727l46.545,46.545l116.364-116.364l15.127-15.127
	c5.818-5.818,8.145-12.8,8.145-19.782l0,0C488.727,249.018,485.236,240.873,480.582,236.218z"/>
<g>
	<path style="fill:#3D545F;" d="M75.636,151.273h93.091c3.491,0,5.818,2.327,5.818,5.818l0,0c0,3.491-2.327,5.818-5.818,5.818
		H75.636c-3.491,0-5.818-2.327-5.818-5.818l0,0C69.818,153.6,72.145,151.273,75.636,151.273z"/>
	<path style="fill:#3D545F;" d="M145.455,221.091h93.091c3.491,0,5.818,2.327,5.818,5.818l0,0c0,3.491-2.327,5.818-5.818,5.818
		h-93.091c-3.491,0-5.818-2.327-5.818-5.818l0,0C139.636,223.418,141.964,221.091,145.455,221.091z"/>
	<path style="fill:#3D545F;" d="M168.727,256h116.364c3.491,0,5.818,2.327,5.818,5.818l0,0c0,3.491-2.327,5.818-5.818,5.818H168.727
		c-3.491,0-5.818-2.327-5.818-5.818l0,0C162.909,258.327,165.236,256,168.727,256z"/>
	<path style="fill:#3D545F;" d="M75.636,186.182h69.818c3.491,0,5.818,2.327,5.818,5.818l0,0c0,3.491-2.327,5.818-5.818,5.818
		H75.636c-3.491,0-5.818-2.327-5.818-5.818l0,0C69.818,188.509,72.145,186.182,75.636,186.182z"/>
	<path style="fill:#3D545F;" d="M261.818,151.273h69.818c3.491,0,5.818,2.327,5.818,5.818l0,0c0,3.491-2.327,5.818-5.818,5.818
		h-69.818c-3.491,0-5.818-2.327-5.818-5.818l0,0C256,153.6,258.327,151.273,261.818,151.273z"/>
	<path style="fill:#3D545F;" d="M192,151.273h46.545c3.491,0,5.818,2.327,5.818,5.818l0,0c0,3.491-2.327,5.818-5.818,5.818H192
		c-3.491,0-5.818-2.327-5.818-5.818l0,0C186.182,153.6,188.509,151.273,192,151.273z"/>
	<path style="fill:#3D545F;" d="M296.727,186.182H320c3.491,0,5.818,2.327,5.818,5.818l0,0c0,3.491-2.327,5.818-5.818,5.818h-23.273
		c-3.491,0-5.818-2.327-5.818-5.818l0,0C290.909,188.509,293.236,186.182,296.727,186.182z"/>
	<path style="fill:#3D545F;" d="M308.364,256h23.273c3.491,0,5.818,2.327,5.818,5.818l0,0c0,3.491-2.327,5.818-5.818,5.818h-23.273
		c-3.491,0-5.818-2.327-5.818-5.818l0,0C302.545,258.327,304.873,256,308.364,256z"/>
	<path style="fill:#3D545F;" d="M145.455,290.909H192c3.491,0,5.818,2.327,5.818,5.818l0,0c0,3.491-2.327,5.818-5.818,5.818h-46.545
		c-3.491,0-5.818-2.327-5.818-5.818l0,0C139.636,293.236,141.964,290.909,145.455,290.909z"/>
	<path style="fill:#3D545F;" d="M250.182,407.273h46.545c3.491,0,5.818,2.327,5.818,5.818l0,0c0,3.491-11.636,5.818-11.636,5.818
		h-40.727c-3.491,0-5.818-2.327-5.818-5.818l0,0C244.364,409.6,246.691,407.273,250.182,407.273z"/>
	<path style="fill:#3D545F;" d="M261.818,221.091h46.545c3.491,0,5.818,2.327,5.818,5.818l0,0c0,3.491-2.327,5.818-5.818,5.818
		h-46.545c-3.491,0-5.818-2.327-5.818-5.818l0,0C256,223.418,258.327,221.091,261.818,221.091z"/>
	<path style="fill:#3D545F;" d="M168.727,186.182h104.727c3.491,0,5.818,2.327,5.818,5.818l0,0c0,3.491-2.327,5.818-5.818,5.818
		H168.727c-3.491,0-5.818-2.327-5.818-5.818l0,0C162.909,188.509,165.236,186.182,168.727,186.182z"/>
	<path style="fill:#3D545F;" d="M157.091,104.727h104.727c3.491,0,5.818,2.327,5.818,5.818l0,0c0,3.491-2.327,5.818-5.818,5.818
		H157.091c-3.491,0-5.818-2.327-5.818-5.818l0,0C151.273,107.055,153.6,104.727,157.091,104.727z"/>
	<path style="fill:#3D545F;" d="M75.636,221.091h46.545c3.491,0,5.818,2.327,5.818,5.818l0,0c0,3.491-2.327,5.818-5.818,5.818
		H75.636c-3.491,0-5.818-2.327-5.818-5.818l0,0C69.818,223.418,72.145,221.091,75.636,221.091z"/>
	<path style="fill:#3D545F;" d="M75.636,256h69.818c3.491,0,5.818,2.327,5.818,5.818l0,0c0,3.491-2.327,5.818-5.818,5.818H75.636
		c-3.491,0-5.818-2.327-5.818-5.818l0,0C69.818,258.327,72.145,256,75.636,256z"/>
	<path style="fill:#3D545F;" d="M75.636,290.909h46.545c3.491,0,5.818,2.327,5.818,5.818l0,0c0,3.491-2.327,5.818-5.818,5.818
		H75.636c-3.491,0-5.818-2.327-5.818-5.818l0,0C69.818,293.236,72.145,290.909,75.636,290.909z"/>
</g>
<polygon style="fill:#EE2C39;" points="174.545,512 139.636,500.364 104.727,512 104.727,430.545 174.545,430.545 "/>
<path style="fill:#CC202C;" d="M174.545,457.309v-15.127h-69.818V512l34.909-11.636v-34.909
	C152.436,465.455,164.073,463.127,174.545,457.309z"/>
<circle style="fill:#F6B545;" cx="139.636" cy="395.636" r="58.182"/>
<circle style="fill:#E78825;" cx="139.636" cy="395.636" r="23.273"/>
<path style="fill:#FFCB5B;" d="M93.091,407.273c-6.982,0-11.636-4.655-11.636-11.636c0-32.582,25.6-58.182,58.182-58.182
	c6.982,0,11.636,4.655,11.636,11.636c0,6.982-4.655,11.636-11.636,11.636c-19.782,0-34.909,15.127-34.909,34.909
	C104.727,402.618,100.073,407.273,93.091,407.273z"/>
<path style="fill:#F19920;" d="M186.182,384c6.982,0,11.636,4.655,11.636,11.636c0,32.582-25.6,58.182-58.182,58.182
	c-6.982,0-11.636-4.655-11.636-11.636c0-6.982,4.655-11.636,11.636-11.636c19.782,0,34.909-15.127,34.909-34.909
	C174.545,388.655,179.2,384,186.182,384z"/>
<path style="fill:#1470B8;" d="M488.727,256L488.727,256c0-10.473-12.8-15.127-19.782-8.145L329.309,387.491l19.782,19.782
	l116.364-116.364l15.127-15.127c2.327-2.327,4.655-4.655,5.818-8.145C487.564,264.145,488.727,259.491,488.727,256L488.727,256
	L488.727,256z"/>
<g>
	<path style="fill:#4C9CD6;" d="M322.327,361.891c-1.164,0-3.491,0-4.655-1.164c-2.327-2.327-2.327-5.818,0-8.145l34.909-34.909
		c2.327-2.327,5.818-2.327,8.145,0c2.327,2.327,2.327,5.818,0,8.145l-34.909,34.909
		C324.655,361.891,323.491,361.891,322.327,361.891z"/>
	<path style="fill:#4C9CD6;" d="M372.364,311.855c-1.164,0-3.491,0-4.655-1.164c-2.327-2.327-2.327-5.818,0-8.145l11.636-11.636
		c2.327-2.327,5.818-2.327,8.145,0c2.327,2.327,2.327,5.818,0,8.145l-11.636,11.636
		C375.855,310.691,373.527,311.855,372.364,311.855z"/>
</g>
<polygon style="fill:#82A7C4;" points="349.091,407.273 290.909,418.909 302.545,360.727 "/>
<polygon style="fill:#6C9ABB;" points="290.909,418.909 349.091,407.273 329.309,387.491 "/>
<g>
</g>
<g>
</g>
<g>
</g>
<g>
</g>
<g>
</g>
<g>
</g>
<g>
</g>
<g>
</g>
<g>
</g>
<g>
</g>
<g>
</g>
<g>
</g>
<g>
</g>
<g>
</g>
<g>
</g>
</svg>
